<?xml version="1.0" encoding="UTF-8"?><svg id="Layer_1" xmlns="http://www.w3.org/2000/svg" viewBox="0 0 69.29 69.26"><defs><style>.cls-1{fill:#283f28;}</style></defs><path class="cls-1" d="M69.29,34.74c-.29,19.48-15.93,34.8-35.21,34.51C14.87,68.97-.32,53.21,0,33.91,.32,15.01,16.12-.29,34.98,0c18.88,.3,34.18,15.35,34.31,34.74Zm-23.29-4.61h-8.34c0-2.46-.06-4.78,.02-7.09,.05-1.23,.82-2.19,1.92-2.65,.96-.4,2.03-.6,3.07-.7,1.16-.12,2.33-.03,3.54-.03v-7.37c-2.32-.1-4.56-.14-6.79-.3-5.43-.39-9.42,2.35-10.79,7.61-.36,1.38-.45,2.85-.51,4.29-.08,2.04-.02,4.09-.02,6.26h-7.89v8.89h7.93v21.66h9.49v-21.69c2.12,0,4.1,.03,6.07-.03,.33,0,.89-.35,.94-.61,.49-2.69,.9-5.39,1.36-8.25Z"/></svg>