<?xml version="1.0" encoding="UTF-8"?><svg id="Layer_1" xmlns="http://www.w3.org/2000/svg" viewBox="0 0 69.28 69.25"><defs><style>.cls-1{fill:#283f28;}</style></defs><path class="cls-1" d="M69.28,34.65c.02,19.04-15.55,34.6-34.65,34.6C15.5,69.25,.03,53.82,0,34.67-.03,15.56,15.42,.05,34.55,0c19.12-.05,34.71,15.51,34.73,34.65Zm-13.52-16.27c-1.47,.64-2.84,1.2-4.17,1.83-.76,.36-1.27,.19-1.91-.34-5.41-4.46-13.59-1.56-14.76,5.24-.18,1.03-.02,2.11-.02,3.27-3.71,.15-6.96-.87-10.05-2.52-3.12-1.66-5.75-3.94-8.19-6.62-2.38,4.78-1.16,8.57,2.74,11.77-.07,.1-.15,.2-.22,.3-1.23-.33-2.47-.65-3.76-.99,.42,4.13,2.47,7,6.5,8.4-.03,.09-.06,.18-.09,.27h-3.54c.74,1.84,1.64,3.34,3.09,4.28,1.42,.92,3.04,1.51,4.59,2.26-1.45,1.44-3.4,2.28-5.51,2.69-2.05,.4-4.14,.61-6.33,.91,.34,.19,.59,.35,.85,.48,3.73,1.88,7.66,2.9,11.85,3.01,14.66,.37,26.13-10.98,25.8-25.56-.01-.64,.14-1.02,.73-1.36,1.46-.84,2.51-2.08,3.31-3.64-1.45,.38-2.73,.72-4.01,1.05,1.28-1.47,2.54-2.81,3.12-4.73Z"/></svg>