<?xml version="1.0" encoding="UTF-8"?><svg id="Layer_1" xmlns="http://www.w3.org/2000/svg" viewBox="0 0 69.28 69.25"><defs><style>.cls-1{fill:#283f28;}</style></defs><path class="cls-1" d="M69.28,34.67c0,19.16-15.53,34.6-34.75,34.58C15.52,69.23,.02,53.69,0,34.65-.02,15.54,15.59-.03,34.72,0c19.11,.03,34.56,15.54,34.56,34.67Zm-34.66,22.06c3.35,0,6.71,.03,10.06,0,6.89-.07,12.08-5.2,12.14-12.08,.06-6.7,.06-13.41,0-20.11-.06-6.79-5.36-11.97-12.12-11.98-6.71,0-13.41,0-20.12,0-6.76,0-12.04,5.27-12.05,12.02,0,6.59,0,13.18,0,19.77,0,7.22,5.13,12.37,12.38,12.4,3.24,.01,6.48,0,9.72,0Z"/><path class="cls-1" d="M34.68,52.83c-3.24,0-6.47,0-9.71,0-5.07-.02-8.56-3.46-8.57-8.52-.02-6.47-.02-12.94,0-19.41,.02-4.98,3.51-8.45,8.51-8.47,6.47-.02,12.95-.02,19.42,0,5.08,.01,8.55,3.47,8.56,8.52,0,6.43,.01,12.87,0,19.3,0,5.14-3.45,8.57-8.61,8.58-3.2,0-6.4,0-9.6,0Zm-.03-6.14c6.65,.01,12.12-5.39,12.17-12,.05-6.52-5.5-12.08-12.09-12.11-6.63-.03-12.08,5.39-12.1,12.03-.02,6.69,5.34,12.08,12.02,12.09Zm11.89-21.32c1.38,0,2.56-1.16,2.58-2.52,.03-1.39-1.2-2.61-2.62-2.59-1.42,.01-2.54,1.11-2.56,2.51-.02,1.44,1.15,2.61,2.6,2.6Z"/><path class="cls-1" d="M42.56,34.73c-.05,4.39-3.64,7.92-7.99,7.86-4.37-.06-7.87-3.64-7.83-8.03,.04-4.28,3.66-7.84,7.94-7.81,4.37,.03,7.93,3.63,7.88,7.98Z"/></svg>